# xmcd
#
# Track frame offsets:
#	150
#	50419
#	89298
#	140649
#	179028
#	239454
#	285233
#
# Disc length: 4205 seconds
# Revision: 0
# Processed by: cddbd v1.5.2PL0 Copyright (c) Steve Scherf et al.
# Submitted via: dBpowerAMP V12.0
#
DISCID=62106b07
DTITLE=Jane Austen - Emma CD 09
DYEAR=1900
DGENRE=
TTITLE0=065
TTITLE1=066
TTITLE2=067
TTITLE3=068
TTITLE4=069
TTITLE5=070
TTITLE6=071
EXTD=
EXTT0=
EXTT1=
EXTT2=
EXTT3=
EXTT4=
EXTT5=
EXTT6=
PLAYORDER=
